# xmcd
#
# Track frame offsets:
#	150
#	25925
#	48419
#	63835
#	106495
#	128587
#	148697
#	164635
#	188271
#	214030
#	242176
#	259786
#	338712
#
# Disc length: 4770 seconds
#
# Revision: 0
# Processed by: cddbd v1.4PL0 Copyright (c) Steve Scherf et al.
# Submitted via: EasyCDDAExtractor 4.6.9.1
#
DISCID=b612a00d
DTITLE=Erann DD - Live
DYEAR=1900
DGENRE=Pop
TTITLE0=Still Believing
TTITLE1=This Is Allright
TTITLE2=Tears In Love
TTITLE3=Drori-Hansen Furniture Medley
TTITLE4=I Wanna Wake Up With You
TTITLE5=Could You Be Loved
TTITLE6=Much Much Better
TTITLE7=Lulee
TTITLE8=The Rose (Maybe Baby)
TTITLE9=Stay
TTITLE10=You Better Believe
TTITLE11=Hjertet Ser
TTITLE12=Data
EXTD=
EXTT0=
EXTT1=
EXTT2=
EXTT3=
EXTT4=
EXTT5=
EXTT6=
EXTT7=
EXTT8=
EXTT9=
EXTT10=
EXTT11=
EXTT12=
PLAYORDER=
